<svg width="19" height="20" viewBox="0 0 19 20" fill="none" xmlns="http://www.w3.org/2000/svg">
<path d="M3.60712 10.0282L10.4606 10.0282M16.0573 11.4423L3.76409 17.9505C2.66205 18.5339 2.11111 18.8257 1.74779 18.7418C1.43269 18.669 1.17244 18.4486 1.04887 18.1497C0.906381 17.8051 1.10328 17.2134 1.4976 16.0305L3.32968 10.5342C3.39225 10.3465 3.42351 10.2526 3.43593 10.1566C3.44696 10.0714 3.44717 9.98524 3.43614 9.90003C3.42371 9.804 3.39226 9.70999 3.32968 9.52226L1.4976 4.02602C1.10328 2.84306 0.906012 2.25162 1.0485 1.90703C1.17207 1.60818 1.43268 1.38754 1.74777 1.31479C2.1111 1.23089 2.66211 1.52269 3.76415 2.10612L16.0574 8.61429C16.9237 9.07297 17.3568 9.30218 17.4985 9.60813C17.6218 9.87461 17.622 10.182 17.4986 10.4485C17.357 10.7544 16.9237 10.9836 16.0573 11.4423Z" stroke="#FF6700" stroke-width="2" stroke-linecap="round" stroke-linejoin="round"/>
</svg>
