<svg width="24" height="27" viewBox="0 0 24 27" fill="none" xmlns="http://www.w3.org/2000/svg">
<path d="M2.7891 25.3761L3.24309 24.4851L3.24309 24.4851L2.7891 25.3761ZM1.62402 24.2108L0.733017 24.6648L0.733017 24.6648L1.62402 24.2108ZM22.3763 24.2108L21.4853 23.7568L21.4853 23.7568L22.3763 24.2108ZM21.2104 25.3761L20.7564 24.4851L21.2104 25.3761ZM21.2104 4.62406L21.6644 3.73306L21.6644 3.73306L21.2104 4.62406ZM22.3763 5.78947L21.4853 6.24346L21.4853 6.24346L22.3763 5.78947ZM2.7891 4.62406L3.24309 5.51507L2.7891 4.62406ZM1.62402 5.78947L2.51503 6.24346L1.62402 5.78947ZM17.3334 20.3334V19.3334C16.7811 19.3334 16.3334 19.7811 16.3334 20.3334H17.3334ZM17.336 20.3334L18.3358 20.3568C18.3421 20.0876 18.2395 19.8272 18.0514 19.6346C17.8632 19.442 17.6053 19.3334 17.336 19.3334V20.3334ZM17.336 20.3361L17.3121 21.3358C17.5773 21.3421 17.8342 21.2428 18.0262 21.0597C18.2182 20.8766 18.3295 20.6247 18.3357 20.3594L17.336 20.3361ZM17.3334 20.336H16.3334C16.3334 20.879 16.7666 21.3227 17.3095 21.3357L17.3334 20.336ZM12 20.3334V19.3334C11.4478 19.3334 11 19.7811 11 20.3334H12ZM12.0027 20.3334L13.0024 20.3568C13.0087 20.0876 12.9062 19.8272 12.718 19.6346C12.5299 19.442 12.272 19.3334 12.0027 19.3334V20.3334ZM12.0026 20.3361L11.9787 21.3358C12.244 21.3421 12.5009 21.2428 12.6928 21.0597C12.8848 20.8766 12.9962 20.6247 13.0024 20.3594L12.0026 20.3361ZM12 20.336H11C11 20.879 11.4333 21.3227 11.9761 21.3357L12 20.336ZM6.66671 20.3334V19.3334C6.11442 19.3334 5.66671 19.7811 5.66671 20.3334H6.66671ZM6.66937 20.3334L7.6691 20.3568C7.67539 20.0876 7.57285 19.8272 7.38469 19.6346C7.19653 19.442 6.93864 19.3334 6.66937 19.3334V20.3334ZM6.66931 20.3361L6.64539 21.3358C6.91063 21.3421 7.16752 21.2428 7.3595 21.0597C7.55149 20.8766 7.66284 20.6247 7.66904 20.3594L6.66931 20.3361ZM6.66671 20.336H5.66671C5.66671 20.879 6.09998 21.3227 6.64279 21.3357L6.66671 20.336ZM17.336 15.0001H18.336C18.336 14.4478 17.8883 14.0001 17.336 14.0001V15.0001ZM17.336 15.0027L17.3121 16.0025C17.5813 16.0089 17.8418 15.9064 18.0346 15.7183C18.2273 15.5301 18.336 15.2721 18.336 15.0027H17.336ZM17.3334 15.0027H16.3334C16.3334 15.5457 16.7666 15.9894 17.3095 16.0024L17.3334 15.0027ZM17.3334 15.0001V14.0001C16.7811 14.0001 16.3334 14.4478 16.3334 15.0001H17.3334ZM12 15.0001V14.0001C11.4478 14.0001 11 14.4478 11 15.0001H12ZM12.0027 15.0001L13.0024 15.0234C13.0087 14.7542 12.9062 14.4939 12.718 14.3013C12.5299 14.1087 12.272 14.0001 12.0027 14.0001V15.0001ZM12.0026 15.0027L11.9787 16.0025C12.244 16.0088 12.5009 15.9095 12.6928 15.7264C12.8848 15.5433 12.9962 15.2913 13.0024 15.0261L12.0026 15.0027ZM12 15.0027H11C11 15.5457 11.4333 15.9894 11.9761 16.0024L12 15.0027ZM6.66671 15.0001V14.0001C6.11442 14.0001 5.66671 14.4478 5.66671 15.0001H6.66671ZM6.66937 15.0001L7.6691 15.0234C7.67539 14.7542 7.57285 14.4939 7.38469 14.3013C7.19653 14.1087 6.93864 14.0001 6.66937 14.0001V15.0001ZM6.66931 15.0027L6.64539 16.0025C6.91063 16.0088 7.16752 15.9095 7.3595 15.7264C7.55149 15.5433 7.66284 15.2913 7.66904 15.0261L6.66931 15.0027ZM6.66671 15.0027H5.66671C5.66671 15.5457 6.09998 15.9894 6.64279 16.0024L6.66671 15.0027ZM1.33337 8.66675C0.781089 8.66675 0.333374 9.11446 0.333374 9.66675C0.333374 10.219 0.781089 10.6667 1.33337 10.6667V8.66675ZM22.6667 10.6667C23.219 10.6667 23.6667 10.219 23.6667 9.66675C23.6667 9.11446 23.219 8.66675 22.6667 8.66675V10.6667ZM18.3334 1.66675C18.3334 1.11446 17.8857 0.666748 17.3334 0.666748C16.7811 0.666748 16.3334 1.11446 16.3334 1.66675H18.3334ZM16.3334 4.33341C16.3334 4.8857 16.7811 5.33341 17.3334 5.33341C17.8857 5.33341 18.3334 4.8857 18.3334 4.33341H16.3334ZM7.66671 1.66675C7.66671 1.11446 7.21899 0.666748 6.66671 0.666748C6.11442 0.666748 5.66671 1.11446 5.66671 1.66675H7.66671ZM5.66671 4.33341C5.66671 4.8857 6.11442 5.33341 6.66671 5.33341C7.21899 5.33341 7.66671 4.8857 7.66671 4.33341H5.66671ZM5.6003 5.33341H18.4003V3.33341H5.6003V5.33341ZM21.6667 8.60002V21.4H23.6667V8.60002H21.6667ZM18.4003 24.6667H5.6003V26.6667H18.4003V24.6667ZM2.33337 21.4V8.60002H0.333374V21.4H2.33337ZM5.6003 24.6667C4.83709 24.6667 4.32464 24.666 3.92999 24.6337C3.54695 24.6024 3.3638 24.5466 3.24309 24.4851L2.33511 26.2671C2.78484 26.4962 3.26055 26.5857 3.76713 26.6271C4.2621 26.6675 4.87004 26.6667 5.6003 26.6667V24.6667ZM0.333374 21.4C0.333374 22.1303 0.332596 22.7381 0.373026 23.233C0.414408 23.7395 0.503885 24.2151 0.733017 24.6648L2.51503 23.7568C2.45351 23.6361 2.39767 23.453 2.36638 23.0701C2.33415 22.6756 2.33337 22.1633 2.33337 21.4H0.333374ZM3.24309 24.4851C2.92964 24.3253 2.6749 24.0706 2.51503 23.7568L0.733017 24.6648C1.08448 25.3546 1.64503 25.9155 2.33511 26.2671L3.24309 24.4851ZM21.6667 21.4C21.6667 22.1634 21.666 22.6757 21.6338 23.0703C21.6026 23.4532 21.5468 23.6362 21.4853 23.7568L23.2673 24.6648C23.4965 24.215 23.5859 23.7393 23.6272 23.2328C23.6676 22.738 23.6667 22.1302 23.6667 21.4H21.6667ZM18.4003 26.6667C19.1305 26.6667 19.7382 26.6675 20.233 26.6271C20.7394 26.5857 21.2148 26.4962 21.6644 26.2671L20.7564 24.4851C20.6356 24.5466 20.4526 24.6024 20.07 24.6337C19.6757 24.666 19.1635 24.6667 18.4003 24.6667V26.6667ZM21.4853 23.7568C21.3258 24.0699 21.0706 24.325 20.7564 24.4851L21.6644 26.2671C22.3538 25.9158 22.9155 25.3552 23.2673 24.6648L21.4853 23.7568ZM18.4003 5.33341C19.1635 5.33341 19.6757 5.33419 20.07 5.36642C20.4527 5.39769 20.6356 5.45352 20.7564 5.51507L21.6644 3.73306C21.2148 3.50396 20.7394 3.41446 20.233 3.37307C19.7382 3.33264 19.1305 3.33341 18.4003 3.33341V5.33341ZM23.6667 8.60002C23.6667 7.86988 23.6676 7.26208 23.6272 6.76732C23.5859 6.26088 23.4965 5.78527 23.2673 5.33548L21.4853 6.24346C21.5468 6.3641 21.6026 6.54703 21.6338 6.92988C21.666 7.32442 21.6667 7.83668 21.6667 8.60002H23.6667ZM20.7564 5.51507C21.0704 5.67507 21.3258 5.93027 21.4853 6.24346L23.2673 5.33548C22.9156 4.64514 22.3539 4.08438 21.6644 3.73306L20.7564 5.51507ZM5.6003 3.33341C4.87006 3.33341 4.26212 3.33264 3.76715 3.37307C3.26058 3.41444 2.78485 3.5039 2.33511 3.73306L3.24309 5.51507C3.36378 5.45358 3.54692 5.39771 3.92997 5.36643C4.32463 5.33419 4.83707 5.33341 5.6003 5.33341V3.33341ZM2.33337 8.60002C2.33337 7.83678 2.33415 7.32452 2.36638 6.93004C2.39766 6.54724 2.4535 6.36422 2.51503 6.24346L0.733017 5.33548C0.503897 5.78515 0.414412 6.26066 0.373027 6.76717C0.332596 7.26198 0.333374 7.86978 0.333374 8.60002H2.33337ZM2.33511 3.73306C1.64493 4.08473 1.08442 4.64581 0.733017 5.33548L2.51503 6.24346C2.67495 5.9296 2.92975 5.67473 3.24309 5.51507L2.33511 3.73306ZM17.3334 21.3334H17.336V19.3334H17.3334V21.3334ZM16.3363 20.3101L16.3363 20.3127L18.3357 20.3594L18.3358 20.3568L16.3363 20.3101ZM17.3599 19.3364L17.3573 19.3363L17.3095 21.3357L17.3121 21.3358L17.3599 19.3364ZM18.3334 20.336V20.3334H16.3334V20.336H18.3334ZM12 21.3334H12.0027V19.3334H12V21.3334ZM11.003 20.3101L11.0029 20.3127L13.0024 20.3594L13.0024 20.3568L11.003 20.3101ZM12.0266 19.3364L12.024 19.3363L11.9761 21.3357L11.9787 21.3358L12.0266 19.3364ZM13 20.336V20.3334H11V20.336H13ZM6.66671 21.3334H6.66937V19.3334H6.66671V21.3334ZM5.66965 20.3101L5.66958 20.3127L7.66904 20.3594L7.6691 20.3568L5.66965 20.3101ZM6.69323 19.3364L6.69063 19.3363L6.64279 21.3357L6.64539 21.3358L6.69323 19.3364ZM7.66671 20.336V20.3334H5.66671V20.336H7.66671ZM16.336 15.0001V15.0027H18.336V15.0001H16.336ZM17.3599 14.003L17.3573 14.003L17.3095 16.0024L17.3121 16.0025L17.3599 14.003ZM18.3334 15.0027V15.0001H16.3334V15.0027H18.3334ZM17.3334 16.0001H17.336V14.0001H17.3334V16.0001ZM12 16.0001H12.0027V14.0001H12V16.0001ZM11.003 14.9767L11.0029 14.9794L13.0024 15.0261L13.0024 15.0234L11.003 14.9767ZM12.0266 14.003L12.024 14.003L11.9761 16.0024L11.9787 16.0025L12.0266 14.003ZM13 15.0027V15.0001H11V15.0027H13ZM6.66671 16.0001H6.66937V14.0001H6.66671V16.0001ZM5.66965 14.9767L5.66958 14.9794L7.66904 15.0261L7.6691 15.0234L5.66965 14.9767ZM6.69323 14.003L6.69063 14.003L6.64279 16.0024L6.64539 16.0025L6.69323 14.003ZM7.66671 15.0027V15.0001H5.66671V15.0027H7.66671ZM1.33337 10.6667H22.6667V8.66675H1.33337V10.6667ZM16.3334 1.66675V4.33341H18.3334V1.66675H16.3334ZM5.66671 1.66675V4.33341H7.66671V1.66675H5.66671Z" fill="#424244"/>
</svg>
