<svg width="43" height="38" viewBox="0 0 43 38" fill="none" xmlns="http://www.w3.org/2000/svg">
<path d="M35.1216 10.7976V6.8122H31.0681V4.03171H35.1216V0H37.9496V4.03171H42.0502V6.8122H37.9496V10.7976H35.1216ZM3.11805 37.3976C2.74765 37.3988 2.38092 37.3254 2.04046 37.1819C1.7 37.0384 1.39303 36.828 1.13845 36.5634C0.869391 36.3131 0.655309 36.0113 0.509398 35.6766C0.363487 35.3418 0.288839 34.9813 0.290054 34.6171V10.8439C0.293544 10.4839 0.370423 10.1282 0.516145 9.79783C0.661867 9.46751 0.873473 9.16926 1.13845 8.92073C1.38965 8.65034 1.69544 8.43444 2.0363 8.28682C2.37716 8.1392 2.74559 8.06312 3.11805 8.06342H10.0467L13.4874 4.03171H26.6847V6.8122H14.8071L11.3664 10.8439H3.11805V34.6171H35.1687V15.1537H37.9967V34.6171C37.997 34.9833 37.9196 35.3455 37.7695 35.6807C37.6193 36.0158 37.3997 36.3164 37.1247 36.5634C36.872 36.8239 36.5686 37.032 36.2327 37.1753C35.8967 37.3185 35.5349 37.3941 35.1687 37.3976H3.11805ZM19.1434 30.6317C20.2042 30.6482 21.2576 30.4541 22.2404 30.0611C23.2232 29.6681 24.1152 29.0842 24.8633 28.3444C25.6113 27.6046 26.1999 26.7241 26.5938 25.7556C26.9878 24.787 27.179 23.7502 27.156 22.7073C27.1823 21.6704 26.9908 20.6393 26.5934 19.6785C26.196 18.7177 25.6013 17.8478 24.8465 17.1232C24.1006 16.3879 23.2103 15.8095 22.2299 15.4232C21.2494 15.0368 20.1993 14.8505 19.1434 14.8756C18.0877 14.8487 17.0374 15.0326 16.056 15.416C15.0746 15.7995 14.1825 16.3746 13.4335 17.1066C12.6846 17.8387 12.0944 18.7124 11.6986 19.675C11.3028 20.6377 11.1096 21.6692 11.1307 22.7073C11.1021 23.7528 11.29 24.7932 11.6829 25.7651C12.0759 26.737 12.6658 27.6202 13.4167 28.361C14.1613 29.1061 15.0541 29.6923 16.0394 30.083C17.0247 30.4737 18.0814 30.6605 19.1434 30.6317ZM19.1434 27.8512C18.4539 27.8736 17.7671 27.7554 17.1263 27.5042C16.4855 27.253 15.9045 26.8741 15.4198 26.3915C14.9361 25.906 14.5573 25.3294 14.3062 24.6963C14.0551 24.0631 13.9369 23.3866 13.9587 22.7073C13.9385 22.0387 14.0577 21.373 14.309 20.7514C14.5602 20.1297 14.9383 19.5653 15.4198 19.0927C15.908 18.6162 16.4902 18.243 17.1306 17.9959C17.7709 17.7489 18.4559 17.6332 19.1434 17.6561C19.8268 17.6376 20.507 17.7553 21.1428 18.0022C21.7787 18.2491 22.3572 18.6201 22.8433 19.0927C23.3312 19.5618 23.7149 20.1252 23.9704 20.7472C24.226 21.3693 24.3477 22.0367 24.328 22.7073C24.3494 23.3885 24.2286 24.0668 23.9733 24.7004C23.718 25.334 23.3334 25.9095 22.8433 26.3915C22.3607 26.8703 21.7834 27.2468 21.147 27.4978C20.5107 27.7489 19.8288 27.8692 19.1434 27.8512Z" fill="#FF6700"/>
</svg>
