<svg width="26" height="26" viewBox="0 0 26 26" fill="none" xmlns="http://www.w3.org/2000/svg">
<path d="M9 15L17 19M17 7L9 11M21 25C18.7909 25 17 23.2091 17 21C17 18.7909 18.7909 17 21 17C23.2091 17 25 18.7909 25 21C25 23.2091 23.2091 25 21 25ZM5 17C2.79086 17 1 15.2091 1 13C1 10.7909 2.79086 9 5 9C7.20914 9 9 10.7909 9 13C9 15.2091 7.20914 17 5 17ZM21 9C18.7909 9 17 7.20914 17 5C17 2.79086 18.7909 1 21 1C23.2091 1 25 2.79086 25 5C25 7.20914 23.2091 9 21 9Z" stroke="#FF6700" stroke-width="2" stroke-linecap="round" stroke-linejoin="round"/>
</svg>
